HIERARCHY
ROOT root
{
	OFFSET	0	13.1	24.9
	CHANNELS 6  Xposition Yposition Zposition Xrotation Yrotation Zrotation
	JOINT spine_1
	{
		OFFSET	0	9.99999	0
		CHANNELS 3  Xrotation Yrotation Zrotation
		JOINT spine_2
		{
			OFFSET	0	112	-10
			CHANNELS 3  Xrotation Yrotation Zrotation
			JOINT spine_3
			{
				OFFSET	0	206.5	19.3
				CHANNELS 3  Xrotation Yrotation Zrotation
				JOINT spine_4
				{
					OFFSET	0	110.4	14.6
					CHANNELS 3  Xrotation Yrotation Zrotation
					JOINT neck_1
					{
						OFFSET	0	71.8	-50.3
						CHANNELS 3  Xrotation Yrotation Zrotation
						JOINT neck_2
						{
							OFFSET	0	86.2	-25.8
							CHANNELS 3  Xrotation Yrotation Zrotation
							JOINT head_ee
							{
								OFFSET	0	179.8	-8.7
								CHANNELS 3  Xrotation Yrotation Zrotation
								End Site
								{
									OFFSET	1	0	0
								}
							}
						}
					}
					JOINT left_clavicle
					{
						OFFSET	-43.2	22.4	-70.8
						CHANNELS 3  Xrotation Yrotation Zrotation
						JOINT left_shoulder
						{
							OFFSET	-93.9	-5.79999	48.7
							CHANNELS 3  Xrotation Yrotation Zrotation
							JOINT left_elbow
							{
								OFFSET	-291.4	-30.8	15.2
								CHANNELS 3  Xrotation Yrotation Zrotation
								JOINT left_lowarm_twist
								{
									OFFSET	-110.7	-3.89999	13.6
									CHANNELS 3  Xrotation Yrotation Zrotation
									JOINT left_hand
									{
										OFFSET	-110.7	-3.89999	13.6
										CHANNELS 3  Xrotation Yrotation Zrotation
										JOINT left_ee
										{
											OFFSET	-80.8	-5.10001	12.1
											CHANNELS 3  Xrotation Yrotation Zrotation
											End Site
											{
												OFFSET	1	0	0
											}
										}
									}
								}
							}
						}
					}
					JOINT right_clavicle
					{
						OFFSET	43.2	22.4	-70.8
						CHANNELS 3  Xrotation Yrotation Zrotation
						JOINT right_shoulder
						{
							OFFSET	93.9	-5.79999	48.7
							CHANNELS 3  Xrotation Yrotation Zrotation
							JOINT right_elbow
							{
								OFFSET	291.4	-30.8	15.2
								CHANNELS 3  Xrotation Yrotation Zrotation
								JOINT right_lowarm_twist
								{
									OFFSET	110.7	-3.89999	13.6
									CHANNELS 3  Xrotation Yrotation Zrotation
									JOINT right_hand
									{
										OFFSET	110.7	-3.89999	13.6
										CHANNELS 3  Xrotation Yrotation Zrotation
										JOINT right_ee
										{
											OFFSET	80.8	-5.10001	12.1
											CHANNELS 3  Xrotation Yrotation Zrotation
											End Site
											{
												OFFSET	1	0	0
											}
										}
									}
								}
							}
						}
					}
				}
			}
		}
	}
	JOINT left_hip
	{
		OFFSET	-82.8	-127.5	0.300001
		CHANNELS 3  Xrotation Yrotation Zrotation
		JOINT left_knee
		{
			OFFSET	-28.2	-396.7	2.2
			CHANNELS 3  Xrotation Yrotation Zrotation
			JOINT left_ankle
			{
				OFFSET	-11.7	-411.3	35.4
				CHANNELS 3  Xrotation Yrotation Zrotation
				JOINT left_toes
				{
					OFFSET	0	-60	-88.6
					CHANNELS 3  Xrotation Yrotation Zrotation
					JOINT left_foot_ee
					{
						OFFSET	-22.5	-16.5	-42.2
						CHANNELS 3  Xrotation Yrotation Zrotation
						End Site
						{
							OFFSET	1	0	0
						}
					}
				}
			}
		}
	}
	JOINT right_hip
	{
		OFFSET	82.8	-127.5	0.300001
		CHANNELS 3  Xrotation Yrotation Zrotation
		JOINT right_knee
		{
			OFFSET	28.2	-396.7	2.2
			CHANNELS 3  Xrotation Yrotation Zrotation
			JOINT right_ankle
			{
				OFFSET	11.7	-411.3	35.4
				CHANNELS 3  Xrotation Yrotation Zrotation
				JOINT right_toes
				{
					OFFSET	0	-60	-88.6
					CHANNELS 3  Xrotation Yrotation Zrotation
					JOINT right_foot_ee
					{
						OFFSET	22.5	-16.5	-42.2
						CHANNELS 3  Xrotation Yrotation Zrotation
						End Site
						{
							OFFSET	1	0	0
						}
					}
				}
			}
		}
	}
}
MOTION
Frames: 7
Frame Time: 0.02
2514.02132671 764.803 -1511.33738644 75.4069439584 82.9846650474 -76.428257047 -2.1459 0.500686 1.02849 -2.14541 0.434229 1.05827 -2.13653 0.160043 1.13263 -2.13816 0.336901 1.09315 -25.8067 19.5522 2.58078 -29.1804 36.4691 13.9857 -0.0 0.0 -0.0 -0.614874 14.4487 0.708131 -20.2834 -27.7624 72.3315 0.558211 -15.4574 0.0757586 -13.9307 -0.693526 1.63626 1.17587 0.934052 8.25592 -0.0 0.0 -0.0 6.17096 15.9163 -11.2862 7.64453 38.5721 -59.8834 1.15971 29.8757 -0.309405 27.976 -0.124464 3.53625 7.61712 -10.1238 -71.382 0.0 0.0 0.0 -0.751115 4.29073 -3.28753 -35.5382 -0.207576 5.36362 28.396 5.63449 -3.71444 -40.1539 0.0 0.0 -0.0 0.0 -0.0 10.4269 15.6155 -7.67614 -20.362 -0.291159 -3.09472 34.3075 -23.0996 4.53798 6.38533 -0.0 -0.0 0.0 0.0 0.0 
2505.17652861 763.082 -1507.06281535 84.0832398616 82.744867643 -85.4873017198 -2.12977 0.493286 1.12556 -2.12917 0.420669 1.15466 -2.11969 0.123502 1.22268 -2.12163 0.315037 1.18784 -26.1387 19.6094 2.7557 -29.582 36.5039 14.3215 -0.0 0.0 -0.0 -0.670617 14.7151 0.65327 -20.3 -27.9845 72.3036 0.510856 -14.2015 0.0636377 -14.1452 -0.707272 1.66003 1.25671 1.69816 9.10666 -0.0 0.0 -0.0 6.29131 16.4729 -11.5063 8.31386 38.004 -59.831 1.23584 31.4736 -0.348248 28.6303 -0.106653 3.61793 7.61849 -9.87624 -71.2242 0.0 0.0 0.0 0.443236 5.22608 -3.40297 -34.3337 -0.146172 5.18907 27.1071 8.18824 -3.5727 -40.0944 0.0 0.0 -0.0 0.0 -0.0 9.3979 16.075 -7.57601 -20.8956 -0.283917 -3.17629 36.5508 -22.6204 4.75852 6.51562 -0.0 -0.0 0.0 0.0 0.0 
2483.90674698 766.255 -1504.40582128 72.0910374318 83.6000883977 -73.1947166577 -2.15955 0.524678 1.36557 -2.15862 0.436728 1.39619 -2.14655 0.0789351 1.46075 -2.14939 0.308619 1.42997 -24.5533 19.8833 3.3651 -27.7277 36.787 14.3795 -0.0 0.0 -0.0 -0.867607 17.314 0.692374 -20.6922 -26.8642 71.1068 0.593094 -16.373 0.0853244 -13.7357 -0.681114 1.61462 1.74597 4.95745 13.6812 -0.0 0.0 -0.0 6.98898 15.6767 -13.0663 7.46253 35.5751 -58.9931 1.5613 37.7165 -0.53331 26.3425 -0.164843 3.3315 7.7007 -9.7496 -73.0503 0.0 0.0 0.0 5.22772 7.19601 -4.10125 -33.3335 -0.0979836 5.04319 34.1021 9.31285 -4.31905 -40.1303 0.0 0.0 -0.0 0.0 -0.0 5.6069 17.8209 -7.68911 -10.015 -0.281033 -1.50933 25.4957 -27.1333 3.61645 1.13676 -0.0 -0.0 0.0 0.0 0.0 
2469.66340204 766.752 -1508.73004011 90.1403365004 84.1992539381 -90.9946601832 -2.16852 -0.0665825 1.11523 -2.16784 -0.137408 1.10873 -2.16997 -0.407106 1.04041 -2.1714 -0.237695 1.09164 -23.4705 19.8291 3.59307 -26.3801 36.5655 14.0702 -0.0 0.0 -0.0 -0.641286 18.7968 1.23471 -19.446 -26.7712 70.3136 0.651992 -17.8994 0.10268 -13.4995 -0.666176 1.58834 2.12599 7.01495 17.0322 -0.0 0.0 -0.0 7.03693 14.8302 -13.2222 7.72889 34.0498 -58.1833 1.76842 41.2154 -0.665024 24.8583 -0.196454 3.14454 7.76356 -8.20533 -73.2033 0.0 0.0 0.0 9.01288 10.8349 -5.1076 -26.1102 0.173295 3.96857 33.7316 12.4538 -4.30311 -39.9785 0.0 0.0 -0.0 0.0 -0.0 3.47612 19.0986 -8.08671 -7.15018 -0.227678 -1.07301 19.6655 -26.914 2.85684 -2.04587 0.0 0.0 0.0 0.0 0.0 
2375.16855608 764.608 -1552.73094837 15.1757939359 80.8576932321 -14.3201580572 -0.852724 0.26576 -0.132984 -0.852756 0.273683 -0.115803 -0.853351 0.292706 -0.0513402 -0.853244 0.280925 -0.0969238 -18.1736 20.9304 10.2662 -19.531 34.8597 18.1885 -0.0 0.0 -0.0 -2.83899 19.9288 -1.85531 -6.81543 -24.1506 73.292 0.931257 -24.7643 0.204451 -7.2269 -0.309979 0.869711 4.10669 6.30819 31.0853 -0.0 0.0 -0.0 5.26074 1.85929 -10.1111 1.49432 31.2804 -63.7663 1.97321 44.3424 -0.80416 19.2577 -0.271886 2.43341 7.70366 -5.1253 -69.0954 0.0 0.0 0.0 5.04808 14.0174 -4.27205 -15.3361 0.322024 2.32445 23.8939 16.5366 -3.24844 -29.4071 0.0 0.0 -0.0 0.0 -0.0 3.75413 28.7252 -10.9921 -12.1743 -0.306795 -1.83963 20.0884 -27.2802 2.92002 1.22765 -0.0 -0.0 0.0 0.0 0.0 
2375.0257708 764.608 -1551.95710375 15.3470493008 80.9581398702 -14.4935924434 -0.852724 0.26576 -0.132984 -0.852756 0.273683 -0.115803 -0.853351 0.292706 -0.0513402 -0.853244 0.280925 -0.0969238 -18.1736 20.9304 10.2662 -19.531 34.8597 18.1885 -0.0 0.0 -0.0 -2.83899 19.9288 -1.85531 -6.81543 -24.1506 73.292 0.931257 -24.7643 0.204451 -7.2269 -0.309979 0.869711 4.10669 6.30819 31.0853 -0.0 0.0 -0.0 5.26074 1.85929 -10.1111 1.49432 31.2804 -63.7663 1.97321 44.3424 -0.80416 19.2577 -0.271886 2.43341 7.70366 -5.1253 -69.0954 0.0 0.0 0.0 5.04808 14.0174 -4.27205 -15.3361 0.322024 2.32445 23.8939 16.5366 -3.24844 -29.4071 0.0 0.0 -0.0 0.0 -0.0 3.75413 28.7252 -10.9921 -12.1743 -0.306795 -1.83963 20.0884 -27.2802 2.92002 1.22765 -0.0 -0.0 0.0 0.0 0.0 
2374.76708012 764.608 -1550.53455035 15.6718803897 81.1424839417 -14.8224265383 -0.852724 0.26576 -0.132984 -0.852756 0.273683 -0.115803 -0.853351 0.292706 -0.0513402 -0.853244 0.280925 -0.0969238 -18.1736 20.9304 10.2662 -19.531 34.8597 18.1885 -0.0 0.0 -0.0 -2.83899 19.9288 -1.85531 -6.81543 -24.1506 73.292 0.931257 -24.7643 0.204451 -7.2269 -0.309979 0.869711 4.10669 6.30819 31.0853 -0.0 0.0 -0.0 5.26074 1.85929 -10.1111 1.49432 31.2804 -63.7663 1.97321 44.3424 -0.80416 19.2577 -0.271886 2.43341 7.70366 -5.1253 -69.0954 0.0 0.0 0.0 5.04808 14.0174 -4.27205 -15.3361 0.322024 2.32445 23.8939 16.5366 -3.24844 -29.4071 0.0 0.0 -0.0 0.0 -0.0 3.75413 28.7252 -10.9921 -12.1743 -0.306795 -1.83963 20.0884 -27.2802 2.92002 1.22765 -0.0 -0.0 0.0 0.0 0.0 
